<svg xmlns="http://www.w3.org/2000/svg" xmlns:xlink="http://www.w3.org/1999/xlink" width="500" zoomAndPan="magnify" viewBox="0 0 375 374.999991" height="500" preserveAspectRatio="xMidYMid meet" version="1.0"><defs><g/><clipPath id="c385910e47"><path d="M 119.050781 75.214844 L 256.300781 75.214844 L 256.300781 212.464844 L 119.050781 212.464844 Z M 119.050781 75.214844 " clip-rule="nonzero"/></clipPath></defs><g fill="#05445e" fill-opacity="1"><g transform="translate(40.992189, 255.85362)"><g><path d="M 6.621094 0 L 6.621094 -15.324219 L 18.5625 0 L 21.996094 0 L 21.996094 -21.914062 L 18 -21.914062 L 18 -6.574219 L 6.058594 -21.914062 L 2.609375 -21.914062 L 2.609375 0 Z M 6.621094 0 "/></g></g><g transform="translate(65.597168, 255.85362)"><g><path d="M 18.046875 -8.570312 C 18.046875 -13.132812 14.695312 -17.0625 9.699219 -17.0625 C 4.722656 -17.0625 1.113281 -13.117188 1.113281 -8.28125 C 1.113281 -3.449219 4.722656 0.5 9.699219 0.5 C 13.824219 0.5 16.773438 -2.222656 17.613281 -5.203125 L 13.359375 -5.203125 C 12.792969 -3.800781 11.585938 -2.980469 9.621094 -2.980469 C 7.332031 -2.980469 5.429688 -4.542969 5.027344 -7.25 L 17.964844 -7.25 C 18.03125 -7.863281 18.046875 -8.152344 18.046875 -8.570312 Z M 5.1875 -10.265625 C 5.847656 -12.601562 7.71875 -13.664062 9.683594 -13.664062 C 11.972656 -13.664062 13.90625 -12.117188 14.066406 -10.265625 Z M 5.1875 -10.265625 "/></g></g><g transform="translate(84.530272, 255.85362)"><g><path d="M 9.25 0 L 12.746094 -10.730469 L 12.761719 -10.730469 L 16.210938 0 L 19.820312 0 L 25.410156 -16.5625 L 21.300781 -16.5625 L 18.0625 -6.234375 L 17.675781 -5.074219 L 17.628906 -5.074219 L 17.289062 -6.171875 L 14.261719 -16.5625 L 11.375 -16.5625 L 8.234375 -6.058594 L 7.925781 -5.074219 L 7.878906 -5.074219 L 7.589844 -6.058594 L 4.351562 -16.5625 L 0.160156 -16.5625 L 5.734375 0 Z M 9.25 0 "/></g></g><g transform="translate(110.085935, 255.85362)"><g/></g><g transform="translate(118.126462, 255.85362)"><g><path d="M 6.621094 0 L 6.621094 -8.605469 L 16.128906 -8.605469 L 16.128906 -11.988281 L 6.621094 -11.988281 L 6.621094 -18.320312 L 17.628906 -18.320312 L 17.628906 -21.914062 L 2.609375 -21.914062 L 2.609375 0 Z M 6.621094 0 "/></g></g><g transform="translate(136.68896, 255.85362)"><g><path d="M 9.8125 0.5 C 14.921875 0.5 18.578125 -3.398438 18.578125 -8.28125 C 18.578125 -13.132812 14.921875 -17.0625 9.828125 -17.0625 C 4.753906 -17.0625 1.113281 -13.117188 1.113281 -8.28125 C 1.113281 -3.414062 4.769531 0.5 9.8125 0.5 Z M 9.84375 -3.125 C 7.058594 -3.125 4.980469 -5.285156 4.980469 -8.28125 C 4.980469 -11.261719 7.058594 -13.453125 9.84375 -13.453125 C 12.632812 -13.453125 14.710938 -11.261719 14.710938 -8.28125 C 14.710938 -5.285156 12.632812 -3.125 9.84375 -3.125 Z M 9.84375 -3.125 "/></g></g><g transform="translate(156.379389, 255.85362)"><g><path d="M 6.1875 0 L 6.1875 -7.703125 C 6.1875 -11.230469 8.007812 -13.210938 10.683594 -13.210938 L 12.246094 -13.210938 L 12.246094 -16.5625 L 10.472656 -16.5625 C 8.3125 -16.5625 6.800781 -15.386719 6.027344 -13.566406 L 6.027344 -16.5625 L 2.289062 -16.5625 L 2.289062 0 Z M 6.1875 0 "/></g></g><g transform="translate(169.124993, 255.85362)"><g><path d="M 9.25 0 L 12.746094 -10.730469 L 12.761719 -10.730469 L 16.210938 0 L 19.820312 0 L 25.410156 -16.5625 L 21.300781 -16.5625 L 18.0625 -6.234375 L 17.675781 -5.074219 L 17.628906 -5.074219 L 17.289062 -6.171875 L 14.261719 -16.5625 L 11.375 -16.5625 L 8.234375 -6.058594 L 7.925781 -5.074219 L 7.878906 -5.074219 L 7.589844 -6.058594 L 4.351562 -16.5625 L 0.160156 -16.5625 L 5.734375 0 Z M 9.25 0 "/></g></g><g transform="translate(194.680656, 255.85362)"><g><path d="M 8.910156 0.5 C 11.601562 0.5 13.792969 -0.726562 14.871094 -2.789062 L 14.871094 0 L 18.578125 0 L 18.578125 -16.5625 L 14.871094 -16.5625 L 14.871094 -13.761719 C 13.808594 -15.824219 11.601562 -17.0625 8.894531 -17.0625 C 4.464844 -17.0625 1.113281 -13.117188 1.113281 -8.28125 C 1.113281 -3.414062 4.429688 0.5 8.910156 0.5 Z M 9.84375 -3.109375 C 7.21875 -3.109375 4.980469 -5.058594 4.980469 -8.28125 C 4.980469 -11.390625 7.171875 -13.453125 9.84375 -13.453125 C 12.550781 -13.453125 14.710938 -11.167969 14.710938 -8.28125 C 14.710938 -5.347656 12.566406 -3.109375 9.84375 -3.109375 Z M 9.84375 -3.109375 "/></g></g><g transform="translate(215.547354, 255.85362)"><g><path d="M 6.1875 0 L 6.1875 -7.703125 C 6.1875 -11.230469 8.007812 -13.210938 10.683594 -13.210938 L 12.246094 -13.210938 L 12.246094 -16.5625 L 10.472656 -16.5625 C 8.3125 -16.5625 6.800781 -15.386719 6.027344 -13.566406 L 6.027344 -16.5625 L 2.289062 -16.5625 L 2.289062 0 Z M 6.1875 0 "/></g></g><g transform="translate(228.292958, 255.85362)"><g><path d="M 9.121094 0.5 C 11.890625 0.5 13.875 -1.046875 14.855469 -2.789062 L 14.855469 0 L 18.5625 0 L 18.5625 -22.6875 L 14.679688 -22.6875 L 14.679688 -15.582031 L 14.757812 -13.855469 C 13.890625 -15.421875 11.875 -17.0625 9.167969 -17.0625 C 4.335938 -17.0625 1.113281 -13.117188 1.113281 -8.28125 C 1.113281 -3.414062 4.414062 0.5 9.121094 0.5 Z M 9.828125 -3.09375 C 6.976562 -3.09375 4.945312 -5.347656 4.945312 -8.28125 C 4.945312 -11.296875 7.074219 -13.453125 9.828125 -13.453125 C 12.566406 -13.453125 14.710938 -11.183594 14.710938 -8.28125 C 14.710938 -5.347656 12.550781 -3.09375 9.828125 -3.09375 Z M 9.828125 -3.09375 "/></g></g><g transform="translate(249.12743, 255.85362)"><g/></g><g transform="translate(257.167956, 255.85362)"><g><path d="M 12.632812 0.46875 C 17.304688 0.46875 22.1875 -2.222656 23.203125 -8.089844 L 19.09375 -8.089844 C 18.238281 -4.722656 15.628906 -3.222656 12.519531 -3.222656 C 8.378906 -3.222656 5.074219 -6.21875 5.074219 -10.972656 C 5.074219 -15.644531 8.378906 -18.753906 12.519531 -18.753906 C 15.644531 -18.753906 18.238281 -17.242188 19.109375 -13.875 L 23.203125 -13.875 C 22.1875 -19.722656 17.257812 -22.429688 12.632812 -22.429688 C 6.171875 -22.429688 1.0625 -17.355469 1.0625 -10.988281 C 1.0625 -4.625 6.171875 0.46875 12.632812 0.46875 Z M 12.632812 0.46875 "/></g></g><g transform="translate(281.45067, 255.85362)"><g><path d="M 8.910156 0.5 C 11.601562 0.5 13.792969 -0.726562 14.871094 -2.789062 L 14.871094 0 L 18.578125 0 L 18.578125 -16.5625 L 14.871094 -16.5625 L 14.871094 -13.761719 C 13.808594 -15.824219 11.601562 -17.0625 8.894531 -17.0625 C 4.464844 -17.0625 1.113281 -13.117188 1.113281 -8.28125 C 1.113281 -3.414062 4.429688 0.5 8.910156 0.5 Z M 9.84375 -3.109375 C 7.21875 -3.109375 4.980469 -5.058594 4.980469 -8.28125 C 4.980469 -11.390625 7.171875 -13.453125 9.84375 -13.453125 C 12.550781 -13.453125 14.710938 -11.167969 14.710938 -8.28125 C 14.710938 -5.347656 12.566406 -3.109375 9.84375 -3.109375 Z M 9.84375 -3.109375 "/></g></g><g transform="translate(302.317367, 255.85362)"><g><path d="M 6.1875 0 L 6.1875 -7.703125 C 6.1875 -11.230469 8.007812 -13.210938 10.683594 -13.210938 L 12.246094 -13.210938 L 12.246094 -16.5625 L 10.472656 -16.5625 C 8.3125 -16.5625 6.800781 -15.386719 6.027344 -13.566406 L 6.027344 -16.5625 L 2.289062 -16.5625 L 2.289062 0 Z M 6.1875 0 "/></g></g><g transform="translate(315.062972, 255.85362)"><g><path d="M 18.046875 -8.570312 C 18.046875 -13.132812 14.695312 -17.0625 9.699219 -17.0625 C 4.722656 -17.0625 1.113281 -13.117188 1.113281 -8.28125 C 1.113281 -3.449219 4.722656 0.5 9.699219 0.5 C 13.824219 0.5 16.773438 -2.222656 17.613281 -5.203125 L 13.359375 -5.203125 C 12.792969 -3.800781 11.585938 -2.980469 9.621094 -2.980469 C 7.332031 -2.980469 5.429688 -4.542969 5.027344 -7.25 L 17.964844 -7.25 C 18.03125 -7.863281 18.046875 -8.152344 18.046875 -8.570312 Z M 5.1875 -10.265625 C 5.847656 -12.601562 7.71875 -13.664062 9.683594 -13.664062 C 11.972656 -13.664062 13.90625 -12.117188 14.066406 -10.265625 Z M 5.1875 -10.265625 "/></g></g></g><g fill="#189ab4" fill-opacity="1"><g transform="translate(103.255353, 280.305978)"><g><path d="M 5.421875 0.078125 C 4.523438 0.078125 3.710938 -0.117188 2.984375 -0.515625 C 2.265625 -0.910156 1.695312 -1.460938 1.28125 -2.171875 C 0.875 -2.878906 0.671875 -3.671875 0.671875 -4.546875 C 0.671875 -5.410156 0.875 -6.195312 1.28125 -6.90625 C 1.695312 -7.613281 2.265625 -8.164062 2.984375 -8.5625 C 3.710938 -8.957031 4.53125 -9.15625 5.4375 -9.15625 C 6.113281 -9.15625 6.734375 -9.039062 7.296875 -8.8125 C 7.867188 -8.59375 8.351562 -8.265625 8.75 -7.828125 L 8.140625 -7.21875 C 7.429688 -7.9375 6.535156 -8.296875 5.453125 -8.296875 C 4.742188 -8.296875 4.09375 -8.128906 3.5 -7.796875 C 2.914062 -7.472656 2.457031 -7.023438 2.125 -6.453125 C 1.789062 -5.890625 1.625 -5.253906 1.625 -4.546875 C 1.625 -3.828125 1.789062 -3.179688 2.125 -2.609375 C 2.457031 -2.046875 2.914062 -1.597656 3.5 -1.265625 C 4.09375 -0.941406 4.742188 -0.78125 5.453125 -0.78125 C 6.546875 -0.78125 7.441406 -1.144531 8.140625 -1.875 L 8.75 -1.265625 C 8.351562 -0.828125 7.867188 -0.492188 7.296875 -0.265625 C 6.722656 -0.0351562 6.097656 0.078125 5.421875 0.078125 Z M 5.421875 0.078125 "/></g></g></g><g fill="#189ab4" fill-opacity="1"><g transform="translate(122.963722, 280.305978)"><g><path d="M 5.453125 0.078125 C 4.546875 0.078125 3.726562 -0.117188 3 -0.515625 C 2.269531 -0.921875 1.695312 -1.472656 1.28125 -2.171875 C 0.875 -2.878906 0.671875 -3.671875 0.671875 -4.546875 C 0.671875 -5.410156 0.875 -6.191406 1.28125 -6.890625 C 1.695312 -7.597656 2.269531 -8.148438 3 -8.546875 C 3.726562 -8.953125 4.546875 -9.15625 5.453125 -9.15625 C 6.347656 -9.15625 7.15625 -8.957031 7.875 -8.5625 C 8.601562 -8.164062 9.171875 -7.613281 9.578125 -6.90625 C 9.992188 -6.195312 10.203125 -5.410156 10.203125 -4.546875 C 10.203125 -3.671875 9.992188 -2.878906 9.578125 -2.171875 C 9.171875 -1.460938 8.601562 -0.910156 7.875 -0.515625 C 7.15625 -0.117188 6.347656 0.078125 5.453125 0.078125 Z M 5.453125 -0.78125 C 6.160156 -0.78125 6.804688 -0.941406 7.390625 -1.265625 C 7.972656 -1.585938 8.425781 -2.035156 8.75 -2.609375 C 9.082031 -3.179688 9.25 -3.828125 9.25 -4.546875 C 9.25 -5.253906 9.082031 -5.894531 8.75 -6.46875 C 8.425781 -7.039062 7.972656 -7.488281 7.390625 -7.8125 C 6.804688 -8.132812 6.160156 -8.296875 5.453125 -8.296875 C 4.734375 -8.296875 4.082031 -8.132812 3.5 -7.8125 C 2.914062 -7.488281 2.457031 -7.039062 2.125 -6.46875 C 1.789062 -5.894531 1.625 -5.253906 1.625 -4.546875 C 1.625 -3.828125 1.789062 -3.179688 2.125 -2.609375 C 2.457031 -2.035156 2.914062 -1.585938 3.5 -1.265625 C 4.082031 -0.941406 4.734375 -0.78125 5.453125 -0.78125 Z M 5.453125 -0.78125 "/></g></g></g><g fill="#189ab4" fill-opacity="1"><g transform="translate(144.228807, 280.305978)"><g><path d="M 10.90625 -9.078125 L 10.90625 0 L 9.984375 0 L 9.984375 -7.265625 L 6.421875 -1.15625 L 5.96875 -1.15625 L 2.40625 -7.21875 L 2.40625 0 L 1.484375 0 L 1.484375 -9.078125 L 2.265625 -9.078125 L 6.21875 -2.34375 L 10.109375 -9.078125 Z M 10.90625 -9.078125 "/></g></g></g><g fill="#189ab4" fill-opacity="1"><g transform="translate(166.998712, 280.305978)"><g><path d="M 10.90625 -9.078125 L 10.90625 0 L 9.984375 0 L 9.984375 -7.265625 L 6.421875 -1.15625 L 5.96875 -1.15625 L 2.40625 -7.21875 L 2.40625 0 L 1.484375 0 L 1.484375 -9.078125 L 2.265625 -9.078125 L 6.21875 -2.34375 L 10.109375 -9.078125 Z M 10.90625 -9.078125 "/></g></g></g><g fill="#189ab4" fill-opacity="1"><g transform="translate(189.768613, 280.305978)"><g><path d="M 5.140625 0.078125 C 3.960938 0.078125 3.046875 -0.257812 2.390625 -0.9375 C 1.734375 -1.613281 1.40625 -2.59375 1.40625 -3.875 L 1.40625 -9.078125 L 2.359375 -9.078125 L 2.359375 -3.921875 C 2.359375 -2.859375 2.59375 -2.066406 3.0625 -1.546875 C 3.539062 -1.035156 4.234375 -0.78125 5.140625 -0.78125 C 6.046875 -0.78125 6.734375 -1.035156 7.203125 -1.546875 C 7.679688 -2.066406 7.921875 -2.859375 7.921875 -3.921875 L 7.921875 -9.078125 L 8.859375 -9.078125 L 8.859375 -3.875 C 8.859375 -2.59375 8.53125 -1.613281 7.875 -0.9375 C 7.226562 -0.257812 6.316406 0.078125 5.140625 0.078125 Z M 5.140625 0.078125 "/></g></g></g><g fill="#189ab4" fill-opacity="1"><g transform="translate(210.42399, 280.305978)"><g><path d="M 9.0625 -9.078125 L 9.0625 0 L 8.28125 0 L 2.4375 -7.359375 L 2.4375 0 L 1.484375 0 L 1.484375 -9.078125 L 2.265625 -9.078125 L 8.125 -1.71875 L 8.125 -9.078125 Z M 9.0625 -9.078125 "/></g></g></g><g fill="#189ab4" fill-opacity="1"><g transform="translate(231.351788, 280.305978)"><g><path d="M 1.484375 -9.078125 L 2.4375 -9.078125 L 2.4375 0 L 1.484375 0 Z M 1.484375 -9.078125 "/></g></g></g><g fill="#189ab4" fill-opacity="1"><g transform="translate(245.650596, 280.305978)"><g><path d="M 3.25 -8.25 L 0.046875 -8.25 L 0.046875 -9.078125 L 7.390625 -9.078125 L 7.390625 -8.25 L 4.203125 -8.25 L 4.203125 0 L 3.25 0 Z M 3.25 -8.25 "/></g></g></g><g fill="#189ab4" fill-opacity="1"><g transform="translate(263.477949, 280.305978)"><g><path d="M 4.59375 -3.140625 L 4.59375 0 L 3.640625 0 L 3.640625 -3.140625 L 0.015625 -9.078125 L 1.03125 -9.078125 L 4.15625 -3.984375 L 7.265625 -9.078125 L 8.21875 -9.078125 Z M 4.59375 -3.140625 "/></g></g></g><g fill="#189ab4" fill-opacity="1"><g transform="translate(124.056133, 298.305976)"><g><path d="M 3.984375 0.078125 C 3.304688 0.078125 2.65625 -0.03125 2.03125 -0.25 C 1.414062 -0.46875 0.941406 -0.753906 0.609375 -1.109375 L 0.984375 -1.84375 C 1.316406 -1.507812 1.753906 -1.238281 2.296875 -1.03125 C 2.835938 -0.832031 3.398438 -0.734375 3.984375 -0.734375 C 4.796875 -0.734375 5.40625 -0.882812 5.8125 -1.1875 C 6.21875 -1.488281 6.421875 -1.875 6.421875 -2.34375 C 6.421875 -2.707031 6.3125 -3 6.09375 -3.21875 C 5.875 -3.4375 5.601562 -3.601562 5.28125 -3.71875 C 4.957031 -3.832031 4.507812 -3.957031 3.9375 -4.09375 C 3.257812 -4.269531 2.71875 -4.4375 2.3125 -4.59375 C 1.90625 -4.757812 1.554688 -5.003906 1.265625 -5.328125 C 0.972656 -5.660156 0.828125 -6.109375 0.828125 -6.671875 C 0.828125 -7.128906 0.945312 -7.546875 1.1875 -7.921875 C 1.4375 -8.296875 1.8125 -8.59375 2.3125 -8.8125 C 2.8125 -9.039062 3.429688 -9.15625 4.171875 -9.15625 C 4.691406 -9.15625 5.203125 -9.082031 5.703125 -8.9375 C 6.203125 -8.800781 6.628906 -8.609375 6.984375 -8.359375 L 6.671875 -7.59375 C 6.285156 -7.84375 5.875 -8.03125 5.4375 -8.15625 C 5.007812 -8.28125 4.585938 -8.34375 4.171875 -8.34375 C 3.378906 -8.34375 2.78125 -8.1875 2.375 -7.875 C 1.976562 -7.570312 1.78125 -7.175781 1.78125 -6.6875 C 1.78125 -6.320312 1.890625 -6.03125 2.109375 -5.8125 C 2.328125 -5.59375 2.601562 -5.425781 2.9375 -5.3125 C 3.269531 -5.195312 3.71875 -5.066406 4.28125 -4.921875 C 4.945312 -4.765625 5.484375 -4.601562 5.890625 -4.4375 C 6.304688 -4.28125 6.65625 -4.039062 6.9375 -3.71875 C 7.21875 -3.394531 7.359375 -2.957031 7.359375 -2.40625 C 7.359375 -1.945312 7.234375 -1.523438 6.984375 -1.140625 C 6.742188 -0.765625 6.367188 -0.46875 5.859375 -0.25 C 5.347656 -0.03125 4.722656 0.078125 3.984375 0.078125 Z M 3.984375 0.078125 "/></g></g></g><g fill="#189ab4" fill-opacity="1"><g transform="translate(142.415358, 298.305976)"><g><path d="M 5.140625 0.078125 C 3.960938 0.078125 3.046875 -0.257812 2.390625 -0.9375 C 1.734375 -1.613281 1.40625 -2.59375 1.40625 -3.875 L 1.40625 -9.078125 L 2.359375 -9.078125 L 2.359375 -3.921875 C 2.359375 -2.859375 2.59375 -2.066406 3.0625 -1.546875 C 3.539062 -1.035156 4.234375 -0.78125 5.140625 -0.78125 C 6.046875 -0.78125 6.734375 -1.035156 7.203125 -1.546875 C 7.679688 -2.066406 7.921875 -2.859375 7.921875 -3.921875 L 7.921875 -9.078125 L 8.859375 -9.078125 L 8.859375 -3.875 C 8.859375 -2.59375 8.53125 -1.613281 7.875 -0.9375 C 7.226562 -0.257812 6.316406 0.078125 5.140625 0.078125 Z M 5.140625 0.078125 "/></g></g></g><g fill="#189ab4" fill-opacity="1"><g transform="translate(163.070736, 298.305976)"><g><path d="M 4.875 -9.078125 C 6.03125 -9.078125 6.9375 -8.800781 7.59375 -8.25 C 8.25 -7.695312 8.578125 -6.9375 8.578125 -5.96875 C 8.578125 -5 8.25 -4.238281 7.59375 -3.6875 C 6.9375 -3.132812 6.03125 -2.859375 4.875 -2.859375 L 2.4375 -2.859375 L 2.4375 0 L 1.484375 0 L 1.484375 -9.078125 Z M 4.84375 -3.703125 C 5.75 -3.703125 6.4375 -3.898438 6.90625 -4.296875 C 7.382812 -4.691406 7.625 -5.25 7.625 -5.96875 C 7.625 -6.695312 7.382812 -7.257812 6.90625 -7.65625 C 6.4375 -8.050781 5.75 -8.25 4.84375 -8.25 L 2.4375 -8.25 L 2.4375 -3.703125 Z M 4.84375 -3.703125 "/></g></g></g><g fill="#189ab4" fill-opacity="1"><g transform="translate(182.76614, 298.305976)"><g><path d="M 4.875 -9.078125 C 6.03125 -9.078125 6.9375 -8.800781 7.59375 -8.25 C 8.25 -7.695312 8.578125 -6.9375 8.578125 -5.96875 C 8.578125 -5 8.25 -4.238281 7.59375 -3.6875 C 6.9375 -3.132812 6.03125 -2.859375 4.875 -2.859375 L 2.4375 -2.859375 L 2.4375 0 L 1.484375 0 L 1.484375 -9.078125 Z M 4.84375 -3.703125 C 5.75 -3.703125 6.4375 -3.898438 6.90625 -4.296875 C 7.382812 -4.691406 7.625 -5.25 7.625 -5.96875 C 7.625 -6.695312 7.382812 -7.257812 6.90625 -7.65625 C 6.4375 -8.050781 5.75 -8.25 4.84375 -8.25 L 2.4375 -8.25 L 2.4375 -3.703125 Z M 4.84375 -3.703125 "/></g></g></g><g fill="#189ab4" fill-opacity="1"><g transform="translate(202.461541, 298.305976)"><g><path d="M 5.453125 0.078125 C 4.546875 0.078125 3.726562 -0.117188 3 -0.515625 C 2.269531 -0.921875 1.695312 -1.472656 1.28125 -2.171875 C 0.875 -2.878906 0.671875 -3.671875 0.671875 -4.546875 C 0.671875 -5.410156 0.875 -6.191406 1.28125 -6.890625 C 1.695312 -7.597656 2.269531 -8.148438 3 -8.546875 C 3.726562 -8.953125 4.546875 -9.15625 5.453125 -9.15625 C 6.347656 -9.15625 7.15625 -8.957031 7.875 -8.5625 C 8.601562 -8.164062 9.171875 -7.613281 9.578125 -6.90625 C 9.992188 -6.195312 10.203125 -5.410156 10.203125 -4.546875 C 10.203125 -3.671875 9.992188 -2.878906 9.578125 -2.171875 C 9.171875 -1.460938 8.601562 -0.910156 7.875 -0.515625 C 7.15625 -0.117188 6.347656 0.078125 5.453125 0.078125 Z M 5.453125 -0.78125 C 6.160156 -0.78125 6.804688 -0.941406 7.390625 -1.265625 C 7.972656 -1.585938 8.425781 -2.035156 8.75 -2.609375 C 9.082031 -3.179688 9.25 -3.828125 9.25 -4.546875 C 9.25 -5.253906 9.082031 -5.894531 8.75 -6.46875 C 8.425781 -7.039062 7.972656 -7.488281 7.390625 -7.8125 C 6.804688 -8.132812 6.160156 -8.296875 5.453125 -8.296875 C 4.734375 -8.296875 4.082031 -8.132812 3.5 -7.8125 C 2.914062 -7.488281 2.457031 -7.039062 2.125 -6.46875 C 1.789062 -5.894531 1.625 -5.253906 1.625 -4.546875 C 1.625 -3.828125 1.789062 -3.179688 2.125 -2.609375 C 2.457031 -2.035156 2.914062 -1.585938 3.5 -1.265625 C 4.082031 -0.941406 4.734375 -0.78125 5.453125 -0.78125 Z M 5.453125 -0.78125 "/></g></g></g><g fill="#189ab4" fill-opacity="1"><g transform="translate(223.726625, 298.305976)"><g><path d="M 7.671875 0 L 5.609375 -2.921875 C 5.367188 -2.890625 5.125 -2.875 4.875 -2.875 L 2.4375 -2.875 L 2.4375 0 L 1.484375 0 L 1.484375 -9.078125 L 4.875 -9.078125 C 6.03125 -9.078125 6.9375 -8.800781 7.59375 -8.25 C 8.25 -7.695312 8.578125 -6.9375 8.578125 -5.96875 C 8.578125 -5.257812 8.398438 -4.660156 8.046875 -4.171875 C 7.691406 -3.679688 7.179688 -3.328125 6.515625 -3.109375 L 8.734375 0 Z M 4.84375 -3.703125 C 5.75 -3.703125 6.4375 -3.898438 6.90625 -4.296875 C 7.382812 -4.691406 7.625 -5.25 7.625 -5.96875 C 7.625 -6.695312 7.382812 -7.257812 6.90625 -7.65625 C 6.4375 -8.050781 5.75 -8.25 4.84375 -8.25 L 2.4375 -8.25 L 2.4375 -3.703125 Z M 4.84375 -3.703125 "/></g></g></g><g fill="#189ab4" fill-opacity="1"><g transform="translate(243.486896, 298.305976)"><g><path d="M 3.25 -8.25 L 0.046875 -8.25 L 0.046875 -9.078125 L 7.390625 -9.078125 L 7.390625 -8.25 L 4.203125 -8.25 L 4.203125 0 L 3.25 0 Z M 3.25 -8.25 "/></g></g></g><path fill="#75e6da" d="M 233.332031 157.167969 L 233.332031 178.757812 C 232.640625 179.65625 231.925781 180.535156 231.183594 181.390625 C 227.617188 185.511719 223.429688 189.164062 218.703125 192.210938 C 217.914062 192.714844 217.128906 193.191406 216.371094 193.628906 C 215.539062 194.105469 214.875 194.46875 214.277344 194.777344 L 213.800781 195.019531 L 213.632812 194.511719 C 213.265625 193.414062 212.875 192.367188 212.472656 191.417969 C 212.246094 190.882812 212.003906 190.359375 211.765625 189.859375 C 211.136719 188.550781 210.410156 187.253906 209.589844 185.976562 C 209.378906 185.648438 209.175781 185.34375 208.96875 185.042969 C 208.5 184.378906 208.011719 183.734375 207.5 183.105469 C 207.472656 183.074219 207.445312 183.039062 207.421875 183.003906 C 206.894531 182.375 206.355469 181.761719 205.792969 181.171875 C 204.660156 179.980469 203.433594 178.882812 202.132812 177.882812 C 199.394531 175.785156 196.621094 174.289062 193.695312 173.351562 L 193.695312 157.167969 C 193.695312 154.996094 194.042969 152.863281 194.726562 150.828125 C 195.941406 147.21875 198.164062 144.089844 201.050781 141.75 C 203.011719 140.167969 205.277344 138.949219 207.75 138.203125 L 209.597656 137.640625 L 207.847656 136.832031 C 203.101562 134.625 200.035156 129.820312 200.035156 124.597656 C 200.035156 117.164062 206.082031 111.117188 213.515625 111.117188 C 220.945312 111.117188 226.992188 117.164062 226.992188 124.597656 C 226.992188 129.820312 223.929688 134.625 219.1875 136.828125 L 217.433594 137.640625 L 219.277344 138.203125 C 222.378906 139.140625 225.226562 140.855469 227.527344 143.148438 C 231.273438 146.890625 233.332031 151.871094 233.332031 157.167969 " fill-opacity="1" fill-rule="nonzero"/><path fill="#189ab4" d="M 181.660156 157.167969 L 181.660156 170.449219 C 179.121094 169.871094 176.550781 169.28125 173.976562 168.636719 C 173.394531 168.496094 172.808594 168.34375 172.226562 168.191406 C 170.84375 167.832031 169.46875 167.449219 168.097656 167.050781 C 167.023438 166.734375 165.949219 166.40625 164.882812 166.058594 C 164.089844 165.800781 163.378906 165.558594 162.710938 165.316406 C 161.144531 164.773438 159.707031 164.214844 158.429688 163.667969 C 157.769531 163.386719 157.070312 163.066406 156.3125 162.691406 C 154.953125 162.003906 153.847656 161.355469 152.941406 160.710938 L 152.828125 160.625 L 152.683594 160.59375 C 152.523438 160.5625 152.363281 160.53125 152.183594 160.503906 L 152.164062 160.5 L 152.070312 160.488281 C 151.765625 160.453125 151.53125 160.4375 151.328125 160.4375 L 151.273438 160.4375 C 150.445312 160.4375 149.832031 160.667969 149.445312 161.101562 C 148.988281 161.617188 148.8125 162.4375 148.925781 163.53125 L 148.929688 163.625 C 149.097656 165.007812 149.648438 166.355469 149.8125 166.734375 L 149.839844 166.796875 L 149.878906 166.855469 C 150.070312 167.128906 150.617188 167.871094 151.546875 168.898438 C 152.058594 169.476562 152.585938 170.027344 153.113281 170.539062 C 154.25 171.621094 155.410156 172.617188 156.65625 173.582031 C 157.351562 174.113281 158.09375 174.644531 158.917969 175.191406 L 159.117188 175.328125 C 159.308594 175.457031 159.503906 175.59375 159.703125 175.714844 C 162.226562 177.347656 164.957031 178.753906 167.855469 179.925781 L 167.863281 179.933594 L 167.855469 179.933594 C 161.332031 178.964844 151.089844 176.648438 144.175781 171.296875 C 143.867188 171.066406 143.566406 170.820312 143.277344 170.578125 C 142.859375 170.21875 142.433594 169.851562 142.015625 169.476562 L 142.015625 157.167969 C 142.015625 152.828125 143.390625 148.707031 145.992188 145.257812 C 148.507812 141.914062 152.09375 139.410156 156.074219 138.203125 L 157.917969 137.640625 L 156.167969 136.828125 C 151.421875 134.625 148.359375 129.820312 148.359375 124.597656 C 148.359375 117.164062 154.40625 111.117188 161.835938 111.117188 C 169.269531 111.117188 175.320312 117.164062 175.320312 124.597656 C 175.320312 129.820312 172.25 134.625 167.511719 136.828125 L 165.761719 137.640625 L 167.605469 138.203125 C 170.039062 138.9375 172.324219 140.15625 174.300781 141.757812 C 174.84375 142.195312 175.359375 142.65625 175.855469 143.148438 C 178.007812 145.304688 179.65625 147.957031 180.625 150.828125 C 181.3125 152.863281 181.660156 154.996094 181.660156 157.167969 " fill-opacity="1" fill-rule="nonzero"/><path fill="#d4f1f4" d="M 167.863281 179.933594 L 167.855469 179.933594 L 167.855469 179.925781 Z M 167.863281 179.933594 " fill-opacity="1" fill-rule="nonzero"/><path fill="#d4f1f4" d="M 207.5 170.144531 L 207.5 183.105469 C 207.472656 183.074219 207.445312 183.039062 207.421875 183.003906 C 206.894531 182.375 206.355469 181.761719 205.792969 181.171875 C 204.660156 179.980469 203.433594 178.882812 202.132812 177.882812 C 199.394531 175.785156 196.621094 174.289062 193.695312 173.351562 C 193.449219 173.265625 193.207031 173.195312 192.957031 173.121094 C 192.847656 173.089844 192.738281 173.054688 192.628906 173.027344 C 192.46875 172.980469 192.320312 172.941406 192.15625 172.902344 C 189.046875 172.113281 185.875 171.398438 182.804688 170.707031 C 182.78125 170.695312 182.753906 170.691406 182.730469 170.683594 C 182.613281 170.664062 182.511719 170.640625 182.394531 170.613281 C 182.152344 170.554688 181.90625 170.503906 181.660156 170.449219 C 179.121094 169.871094 176.550781 169.28125 173.976562 168.636719 C 173.394531 168.496094 172.808594 168.34375 172.226562 168.191406 C 170.84375 167.832031 169.46875 167.449219 168.097656 167.050781 C 169.132812 160.550781 173.371094 154.878906 179.476562 152.101562 L 180.609375 151.585938 L 179.613281 150.835938 C 176.636719 148.609375 174.757812 145.371094 174.300781 141.757812 C 174.230469 141.191406 174.191406 140.617188 174.191406 140.03125 C 174.191406 132.597656 180.242188 126.558594 187.675781 126.558594 C 195.109375 126.558594 201.160156 132.597656 201.160156 140.03125 C 201.160156 140.617188 201.121094 141.1875 201.050781 141.75 C 200.597656 145.367188 198.714844 148.609375 195.738281 150.835938 L 194.742188 151.585938 L 195.878906 152.101562 C 198.042969 153.085938 200 154.441406 201.695312 156.132812 C 205.4375 159.875 207.5 164.855469 207.5 170.144531 " fill-opacity="1" fill-rule="nonzero"/><g clip-path="url(#c385910e47)"><path fill="#05445e" d="M 256.300781 143.839844 C 256.300781 163.234375 248.058594 181.503906 234.074219 194.355469 C 233.136719 195.222656 232.167969 196.058594 231.183594 196.875 C 228.058594 199.4375 224.6875 201.75 221.09375 203.761719 C 217.003906 206.058594 212.691406 207.921875 208.234375 209.320312 C 207.808594 209.453125 207.382812 209.582031 206.953125 209.707031 C 205.898438 210.019531 204.839844 210.300781 203.777344 210.554688 L 203.453125 210.632812 C 200.011719 211.453125 196.496094 211.992188 192.957031 212.269531 C 192.847656 212.273438 192.738281 212.28125 192.628906 212.289062 C 191.601562 212.359375 190.566406 212.414062 189.535156 212.441406 C 189.328125 212.449219 189.125 212.453125 188.917969 212.453125 C 188.5 212.464844 188.085938 212.464844 187.675781 212.464844 C 187.261719 212.464844 186.847656 212.464844 186.429688 212.453125 C 186.222656 212.453125 186.015625 212.449219 185.808594 212.441406 C 184.773438 212.414062 183.75 212.359375 182.730469 212.289062 C 182.613281 212.28125 182.503906 212.273438 182.394531 212.269531 C 177.578125 211.898438 172.890625 211.03125 168.40625 209.714844 C 167.972656 209.582031 167.542969 209.453125 167.121094 209.320312 C 158.648438 206.660156 150.882812 202.386719 144.175781 196.878906 C 143.183594 196.070312 142.21875 195.226562 141.28125 194.367188 C 127.621094 181.8125 119.050781 163.808594 119.050781 143.839844 C 119.050781 143.269531 119.054688 142.78125 119.066406 142.316406 L 120.394531 142.0625 C 120.550781 142.4375 120.660156 142.699219 120.6875 142.75 C 121.394531 144.375 125.46875 151.347656 132.382812 159.484375 C 135.476562 163.117188 138.410156 166.191406 141.28125 168.816406 C 141.527344 169.039062 141.769531 169.257812 142.015625 169.476562 C 142.433594 169.851562 142.859375 170.21875 143.277344 170.578125 C 143.566406 170.820312 143.867188 171.066406 144.175781 171.296875 C 151.089844 176.648438 161.332031 178.964844 167.855469 179.933594 L 167.863281 179.933594 L 167.855469 179.925781 C 164.957031 178.753906 162.226562 177.347656 159.703125 175.714844 C 159.503906 175.59375 159.308594 175.457031 159.117188 175.328125 L 158.917969 175.191406 C 158.09375 174.644531 157.351562 174.113281 156.65625 173.582031 C 155.410156 172.617188 154.25 171.621094 153.113281 170.539062 C 152.585938 170.027344 152.058594 169.476562 151.546875 168.898438 C 150.617188 167.871094 150.070312 167.128906 149.878906 166.855469 L 149.839844 166.796875 L 149.8125 166.734375 C 149.648438 166.355469 149.097656 165.007812 148.929688 163.625 L 148.925781 163.53125 C 148.8125 162.4375 148.988281 161.617188 149.445312 161.101562 C 149.832031 160.667969 150.445312 160.4375 151.273438 160.4375 L 151.328125 160.4375 C 151.53125 160.4375 151.765625 160.453125 152.070312 160.488281 L 152.164062 160.5 L 152.183594 160.503906 C 152.363281 160.53125 152.523438 160.5625 152.683594 160.59375 L 152.828125 160.625 L 152.941406 160.710938 C 153.847656 161.355469 154.953125 162.003906 156.3125 162.691406 C 157.070312 163.066406 157.769531 163.386719 158.429688 163.667969 C 159.707031 164.214844 161.144531 164.773438 162.710938 165.316406 C 163.378906 165.558594 164.089844 165.800781 164.882812 166.058594 C 165.949219 166.40625 167.023438 166.734375 168.097656 167.050781 C 169.46875 167.449219 170.84375 167.832031 172.226562 168.191406 C 172.808594 168.34375 173.394531 168.496094 173.976562 168.636719 C 176.550781 169.28125 179.121094 169.871094 181.660156 170.449219 C 181.90625 170.503906 182.152344 170.554688 182.394531 170.613281 C 182.511719 170.640625 182.613281 170.664062 182.730469 170.683594 C 182.753906 170.691406 182.78125 170.695312 182.804688 170.707031 C 185.875 171.398438 189.046875 172.113281 192.15625 172.902344 C 192.320312 172.941406 192.46875 172.980469 192.628906 173.027344 C 192.738281 173.054688 192.847656 173.089844 192.957031 173.121094 C 193.207031 173.195312 193.449219 173.265625 193.695312 173.351562 C 196.621094 174.289062 199.394531 175.785156 202.132812 177.882812 C 203.433594 178.882812 204.660156 179.980469 205.792969 181.171875 C 206.355469 181.761719 206.894531 182.375 207.421875 183.003906 C 207.445312 183.039062 207.472656 183.074219 207.5 183.105469 C 208.011719 183.734375 208.5 184.378906 208.96875 185.042969 C 209.175781 185.34375 209.378906 185.648438 209.589844 185.976562 C 210.410156 187.253906 211.136719 188.550781 211.765625 189.859375 C 212.003906 190.359375 212.246094 190.882812 212.472656 191.417969 C 212.875 192.367188 213.265625 193.414062 213.632812 194.511719 L 213.800781 195.019531 L 214.277344 194.777344 C 214.875 194.46875 215.539062 194.105469 216.371094 193.628906 C 217.128906 193.191406 217.914062 192.714844 218.703125 192.210938 C 223.429688 189.164062 227.617188 185.511719 231.183594 181.390625 C 231.925781 180.535156 232.640625 179.65625 233.332031 178.757812 C 233.582031 178.433594 233.828125 178.105469 234.074219 177.773438 C 241.1875 168.074219 245.15625 156.261719 245.15625 143.839844 C 245.15625 112.148438 219.371094 86.371094 187.675781 86.371094 C 155.984375 86.371094 130.203125 112.148438 130.203125 143.839844 C 130.203125 144.269531 130.207031 144.707031 130.21875 145.144531 L 130.28125 147.6875 L 128.941406 145.523438 C 128.84375 145.367188 128.746094 145.214844 128.640625 145.054688 L 128.5625 144.945312 C 128.289062 144.523438 127.964844 144.027344 127.648438 143.511719 C 127.351562 143.042969 127.0625 142.578125 126.777344 142.105469 L 126.601562 141.824219 C 126.417969 141.535156 126.238281 141.230469 126.050781 140.929688 C 123.910156 137.445312 122.011719 134.125 120.402344 131.058594 L 120.289062 130.839844 L 120.332031 130.601562 C 126.625 98.511719 154.945312 75.214844 187.675781 75.214844 C 225.519531 75.214844 256.300781 106 256.300781 143.839844 " fill-opacity="1" fill-rule="nonzero"/></g></svg>