<svg xmlns="http://www.w3.org/2000/svg" xmlns:xlink="http://www.w3.org/1999/xlink" width="500" zoomAndPan="magnify" viewBox="0 0 375 374.999991" height="500" preserveAspectRatio="xMidYMid meet" version="1.0"><defs><clipPath id="aa993a5945"><path d="M 119.050781 75.214844 L 256 75.214844 L 256 212.464844 L 119.050781 212.464844 Z M 119.050781 75.214844 " clip-rule="nonzero"/></clipPath></defs><path fill="#75e6da" d="M 233.03125 156.949219 L 233.03125 178.484375 C 232.339844 179.382812 231.625 180.257812 230.886719 181.109375 C 227.328125 185.222656 223.15625 188.863281 218.4375 191.902344 C 217.652344 192.402344 216.867188 192.878906 216.113281 193.316406 C 215.285156 193.792969 214.621094 194.152344 214.027344 194.460938 L 213.550781 194.703125 L 213.382812 194.195312 C 213.015625 193.101562 212.628906 192.054688 212.226562 191.109375 C 211.996094 190.578125 211.757812 190.054688 211.519531 189.554688 C 210.894531 188.25 210.167969 186.957031 209.351562 185.683594 C 209.140625 185.355469 208.9375 185.050781 208.730469 184.75 C 208.261719 184.089844 207.777344 183.445312 207.265625 182.820312 C 207.238281 182.789062 207.210938 182.753906 207.1875 182.71875 C 206.664062 182.089844 206.125 181.476562 205.566406 180.890625 C 204.433594 179.703125 203.210938 178.609375 201.914062 177.609375 C 199.179688 175.519531 196.417969 174.027344 193.496094 173.089844 L 193.496094 156.949219 C 193.496094 154.785156 193.84375 152.65625 194.527344 150.628906 C 195.738281 147.027344 197.953125 143.90625 200.832031 141.574219 C 202.789062 139.996094 205.046875 138.78125 207.511719 138.035156 L 209.355469 137.476562 L 207.609375 136.667969 C 202.878906 134.464844 199.820312 129.675781 199.820312 124.46875 C 199.820312 117.054688 205.851562 111.019531 213.265625 111.019531 C 220.675781 111.019531 226.707031 117.054688 226.707031 124.46875 C 226.707031 129.675781 223.652344 134.464844 218.921875 136.664062 L 217.175781 137.476562 L 219.011719 138.035156 C 222.105469 138.972656 224.945312 140.679688 227.242188 142.96875 C 230.972656 146.703125 233.03125 151.667969 233.03125 156.949219 " fill-opacity="1" fill-rule="nonzero"/><path fill="#189ab4" d="M 181.492188 156.949219 L 181.492188 170.195312 C 178.960938 169.621094 176.398438 169.03125 173.828125 168.390625 C 173.25 168.25 172.664062 168.097656 172.085938 167.945312 C 170.707031 167.585938 169.335938 167.207031 167.96875 166.808594 C 166.894531 166.492188 165.824219 166.167969 164.761719 165.820312 C 163.972656 165.5625 163.261719 165.316406 162.59375 165.078125 C 161.035156 164.535156 159.601562 163.980469 158.328125 163.433594 C 157.667969 163.152344 156.96875 162.832031 156.214844 162.460938 C 154.855469 161.777344 153.753906 161.128906 152.851562 160.484375 L 152.738281 160.398438 L 152.59375 160.367188 C 152.433594 160.335938 152.273438 160.304688 152.097656 160.277344 L 152.078125 160.273438 L 151.984375 160.265625 C 151.679688 160.226562 151.445312 160.210938 151.242188 160.210938 L 151.1875 160.210938 C 150.363281 160.210938 149.753906 160.441406 149.363281 160.875 C 148.90625 161.386719 148.730469 162.207031 148.84375 163.296875 L 148.851562 163.390625 C 149.015625 164.769531 149.566406 166.113281 149.730469 166.492188 L 149.757812 166.554688 L 149.796875 166.613281 C 149.988281 166.886719 150.535156 167.625 151.460938 168.652344 C 151.972656 169.226562 152.496094 169.777344 153.023438 170.289062 C 154.15625 171.367188 155.3125 172.359375 156.554688 173.324219 C 157.25 173.851562 157.992188 174.378906 158.8125 174.925781 L 159.011719 175.0625 C 159.203125 175.191406 159.398438 175.328125 159.59375 175.449219 C 162.113281 177.078125 164.835938 178.480469 167.726562 179.648438 L 167.734375 179.65625 L 167.726562 179.65625 C 161.222656 178.691406 151.003906 176.378906 144.109375 171.042969 C 143.800781 170.8125 143.5 170.566406 143.210938 170.324219 C 142.796875 169.96875 142.371094 169.597656 141.953125 169.226562 L 141.953125 156.949219 C 141.953125 152.621094 143.324219 148.515625 145.921875 145.070312 C 148.429688 141.738281 152.003906 139.242188 155.976562 138.035156 L 157.8125 137.476562 L 156.070312 136.664062 C 151.335938 134.464844 148.28125 129.675781 148.28125 124.46875 C 148.28125 117.054688 154.3125 111.019531 161.722656 111.019531 C 169.136719 111.019531 175.171875 117.054688 175.171875 124.46875 C 175.171875 129.675781 172.109375 134.464844 167.382812 136.664062 L 165.636719 137.476562 L 167.476562 138.035156 C 169.90625 138.769531 172.183594 139.984375 174.15625 141.582031 C 174.695312 142.015625 175.210938 142.476562 175.703125 142.96875 C 177.851562 145.117188 179.496094 147.765625 180.464844 150.628906 C 181.144531 152.65625 181.492188 154.785156 181.492188 156.949219 " fill-opacity="1" fill-rule="nonzero"/><path fill="#d4f1f4" d="M 167.734375 179.65625 L 167.726562 179.65625 L 167.726562 179.648438 Z M 167.734375 179.65625 " fill-opacity="1" fill-rule="nonzero"/><path fill="#d4f1f4" d="M 207.265625 169.894531 L 207.265625 182.820312 C 207.238281 182.789062 207.210938 182.753906 207.1875 182.71875 C 206.664062 182.089844 206.125 181.476562 205.566406 180.890625 C 204.433594 179.703125 203.210938 178.609375 201.914062 177.609375 C 199.179688 175.519531 196.417969 174.027344 193.496094 173.089844 C 193.253906 173.007812 193.011719 172.933594 192.761719 172.863281 C 192.652344 172.832031 192.542969 172.796875 192.433594 172.769531 C 192.273438 172.722656 192.125 172.679688 191.964844 172.644531 C 188.863281 171.859375 185.699219 171.144531 182.636719 170.453125 C 182.613281 170.445312 182.585938 170.4375 182.558594 170.433594 C 182.445312 170.414062 182.34375 170.386719 182.230469 170.363281 C 181.984375 170.304688 181.742188 170.253906 181.492188 170.195312 C 178.960938 169.621094 176.398438 169.03125 173.828125 168.390625 C 173.25 168.25 172.664062 168.097656 172.085938 167.945312 C 170.707031 167.585938 169.335938 167.207031 167.96875 166.808594 C 169 160.324219 173.230469 154.667969 179.316406 151.898438 L 180.445312 151.382812 L 179.453125 150.636719 C 176.484375 148.417969 174.613281 145.183594 174.15625 141.582031 C 174.082031 141.019531 174.046875 140.441406 174.046875 139.863281 C 174.046875 132.445312 180.078125 126.421875 187.496094 126.421875 C 194.910156 126.421875 200.941406 132.445312 200.941406 139.863281 C 200.941406 140.441406 200.90625 141.011719 200.832031 141.574219 C 200.382812 145.179688 198.503906 148.417969 195.535156 150.636719 L 194.539062 151.382812 L 195.675781 151.898438 C 197.835938 152.878906 199.785156 154.230469 201.476562 155.921875 C 205.210938 159.652344 207.265625 164.617188 207.265625 169.894531 " fill-opacity="1" fill-rule="nonzero"/><g clip-path="url(#aa993a5945)"><path fill="#05445e" d="M 255.9375 143.65625 C 255.9375 163.003906 247.714844 181.222656 233.773438 194.039062 C 232.832031 194.90625 231.871094 195.738281 230.886719 196.550781 C 227.769531 199.109375 224.410156 201.414062 220.824219 203.421875 C 216.746094 205.710938 212.441406 207.570312 208 208.964844 C 207.574219 209.097656 207.148438 209.226562 206.722656 209.351562 C 205.671875 209.660156 204.613281 209.941406 203.550781 210.195312 L 203.230469 210.273438 C 199.796875 211.089844 196.292969 211.628906 192.761719 211.90625 C 192.652344 211.910156 192.542969 211.921875 192.433594 211.925781 C 191.410156 211.996094 190.378906 212.050781 189.347656 212.078125 C 189.140625 212.085938 188.941406 212.089844 188.734375 212.089844 C 188.316406 212.101562 187.902344 212.101562 187.496094 212.101562 C 187.082031 212.101562 186.667969 212.101562 186.25 212.089844 C 186.042969 212.089844 185.835938 212.085938 185.628906 212.078125 C 184.601562 212.050781 183.578125 211.996094 182.558594 211.925781 C 182.445312 211.921875 182.335938 211.910156 182.230469 211.90625 C 177.421875 211.535156 172.746094 210.671875 168.273438 209.359375 C 167.84375 209.226562 167.414062 209.097656 166.996094 208.964844 C 158.542969 206.3125 150.796875 202.050781 144.109375 196.558594 C 143.117188 195.75 142.15625 194.910156 141.222656 194.050781 C 127.601562 181.53125 119.050781 163.574219 119.050781 143.65625 C 119.050781 143.089844 119.054688 142.601562 119.066406 142.140625 L 120.390625 141.886719 C 120.546875 142.261719 120.65625 142.519531 120.683594 142.570312 C 121.386719 144.191406 125.449219 151.144531 132.347656 159.257812 C 135.433594 162.882812 138.359375 165.949219 141.222656 168.570312 C 141.46875 168.792969 141.710938 169.007812 141.953125 169.226562 C 142.371094 169.597656 142.796875 169.96875 143.210938 170.324219 C 143.5 170.566406 143.800781 170.8125 144.109375 171.042969 C 151.003906 176.378906 161.222656 178.691406 167.726562 179.65625 L 167.734375 179.65625 L 167.726562 179.648438 C 164.835938 178.480469 162.113281 177.078125 159.59375 175.449219 C 159.398438 175.328125 159.203125 175.191406 159.011719 175.0625 L 158.8125 174.925781 C 157.992188 174.378906 157.25 173.851562 156.554688 173.324219 C 155.3125 172.359375 154.15625 171.367188 153.023438 170.289062 C 152.496094 169.777344 151.972656 169.226562 151.460938 168.652344 C 150.535156 167.625 149.988281 166.886719 149.796875 166.613281 L 149.757812 166.554688 L 149.730469 166.492188 C 149.566406 166.113281 149.015625 164.769531 148.851562 163.390625 L 148.84375 163.296875 C 148.730469 162.207031 148.90625 161.386719 149.363281 160.875 C 149.753906 160.441406 150.363281 160.210938 151.1875 160.210938 L 151.242188 160.210938 C 151.445312 160.210938 151.679688 160.226562 151.984375 160.265625 L 152.078125 160.273438 L 152.097656 160.277344 C 152.273438 160.304688 152.433594 160.335938 152.59375 160.367188 L 152.738281 160.398438 L 152.851562 160.484375 C 153.753906 161.128906 154.855469 161.777344 156.214844 162.460938 C 156.96875 162.832031 157.667969 163.152344 158.328125 163.433594 C 159.601562 163.980469 161.035156 164.535156 162.59375 165.078125 C 163.261719 165.316406 163.972656 165.5625 164.761719 165.820312 C 165.824219 166.167969 166.894531 166.492188 167.96875 166.808594 C 169.335938 167.207031 170.707031 167.585938 172.085938 167.945312 C 172.664062 168.097656 173.25 168.25 173.828125 168.390625 C 176.398438 169.03125 178.960938 169.621094 181.492188 170.195312 C 181.742188 170.253906 181.984375 170.304688 182.230469 170.363281 C 182.34375 170.386719 182.445312 170.414062 182.558594 170.433594 C 182.585938 170.4375 182.613281 170.445312 182.636719 170.453125 C 185.699219 171.144531 188.863281 171.859375 191.964844 172.644531 C 192.125 172.679688 192.273438 172.722656 192.433594 172.769531 C 192.542969 172.796875 192.652344 172.832031 192.761719 172.863281 C 193.011719 172.933594 193.253906 173.007812 193.496094 173.089844 C 196.417969 174.027344 199.179688 175.519531 201.914062 177.609375 C 203.210938 178.609375 204.433594 179.703125 205.566406 180.890625 C 206.125 181.476562 206.664062 182.089844 207.1875 182.71875 C 207.210938 182.753906 207.238281 182.789062 207.265625 182.820312 C 207.777344 183.445312 208.261719 184.089844 208.730469 184.75 C 208.9375 185.050781 209.140625 185.355469 209.351562 185.683594 C 210.167969 186.957031 210.894531 188.25 211.519531 189.554688 C 211.757812 190.054688 211.996094 190.578125 212.226562 191.109375 C 212.628906 192.054688 213.015625 193.101562 213.382812 194.195312 L 213.550781 194.703125 L 214.027344 194.460938 C 214.621094 194.152344 215.285156 193.792969 216.113281 193.316406 C 216.867188 192.878906 217.652344 192.402344 218.4375 191.902344 C 223.15625 188.863281 227.328125 185.222656 230.886719 181.109375 C 231.625 180.257812 232.339844 179.382812 233.03125 178.484375 C 233.277344 178.160156 233.527344 177.832031 233.773438 177.5 C 240.863281 167.828125 244.820312 156.050781 244.820312 143.65625 C 244.820312 112.050781 219.105469 86.34375 187.496094 86.34375 C 155.886719 86.34375 130.175781 112.050781 130.175781 143.65625 C 130.175781 144.089844 130.179688 144.523438 130.1875 144.957031 L 130.25 147.496094 L 128.914062 145.335938 C 128.816406 145.179688 128.71875 145.03125 128.617188 144.871094 L 128.539062 144.761719 C 128.261719 144.339844 127.941406 143.84375 127.625 143.332031 C 127.332031 142.867188 127.039062 142.398438 126.757812 141.929688 L 126.578125 141.648438 C 126.398438 141.359375 126.21875 141.054688 126.03125 140.757812 C 123.898438 137.277344 122.003906 133.96875 120.398438 130.910156 L 120.285156 130.691406 L 120.332031 130.453125 C 126.605469 98.449219 154.851562 75.214844 187.496094 75.214844 C 225.238281 75.214844 255.9375 105.917969 255.9375 143.65625 " fill-opacity="1" fill-rule="nonzero"/></g></svg>